<svg id="Layer_2" data-name="Layer 2" xmlns="http://www.w3.org/2000/svg" viewBox="0 0 384.79 450.24"><defs><style>.cls-1{fill:#11162a;}.cls-2{fill:#0ee5b7;}</style></defs><polygon class="cls-1" points="194.38 0 0 115.1 0 335.14 194.38 450.24 384.79 337.4 384.79 113.97 194.38 0"/><path class="cls-2" d="M7158.6,7131.68a217.26,217.26,0,0,1,35.9-2.79c18.49,0,32,4.3,40.63,12,8,6.88,12.69,17.41,12.69,30.31,0,13.12-3.87,23.44-11.18,31-9.89,10.54-26,15.91-44.29,15.91-5.59,0-10.75-.21-15.05-1.29v58.05h-18.7Zm18.7,69.88a63,63,0,0,0,15.48,1.5c22.57,0,36.33-11,36.33-31,0-19.13-13.54-28.38-34.18-28.38-8.17,0-14.41.65-17.63,1.51Z" transform="translate(-7007.1 -6974.88)"/></svg>