<svg xmlns="http://www.w3.org/2000/svg" viewBox="0 0 389.14 455.33"><defs><style>.cls-1{fill:#0ee5b7;}.cls-2{fill:#11162a;}</style></defs><g id="Layer_2" data-name="Layer 2"><g id="Layer_1-2" data-name="Layer 1"><polygon class="cls-1" points="196.58 0 0 116.4 0 338.93 196.58 455.33 389.14 341.22 389.14 115.26 196.58 0"/><polygon class="cls-2" points="196.41 19.73 16.86 126.04 16.86 329.29 196.41 435.61 372.29 331.38 372.29 125 196.41 19.73"/><path class="cls-1" d="M149.46,156.67a220.61,220.61,0,0,1,36.3-2.82c18.7,0,32.37,4.35,41.09,12.14,8.09,7,12.84,17.61,12.84,30.65,0,13.27-3.92,23.71-11.31,31.35-10,10.66-26.29,16.09-44.79,16.09-5.65,0-10.87-.21-15.22-1.3v58.7H149.46Zm18.91,70.68A63.8,63.8,0,0,0,184,228.86c22.83,0,36.75-11.12,36.75-31.35,0-19.35-13.7-28.7-34.57-28.7-8.26,0-14.57.66-17.83,1.53Z"/></g></g></svg>